<svg width="26" height="26" viewBox="0 0 26 26" fill="none" xmlns="http://www.w3.org/2000/svg">
<path d="M25.4004 0.37343C25.7761 0.678053 25.9944 1.14006 25.9944 1.62746V8.93839C25.9944 10.2838 24.5373 11.3754 22.7451 11.3754C20.9529 11.3754 19.4958 10.2838 19.4958 8.93839C19.4958 7.59298 20.9529 6.50141 22.7451 6.50141V3.6075L17.8712 4.58229V10.563C17.8712 11.9085 16.4141 13 14.6219 13C12.8297 13 11.3726 11.9085 11.3726 10.563C11.3726 9.21763 12.8297 8.12606 14.6219 8.12606V3.25211C14.6219 2.47532 15.1702 1.81023 15.9267 1.65792L24.0499 0.0332689C24.5272 -0.0631948 25.0196 0.0637311 25.4004 0.368353V0.37343ZM3.79255 15.437L4.39164 14.5333C4.69118 14.0814 5.19888 13.8123 5.74213 13.8123H8.87466C9.4179 13.8123 9.9256 14.0814 10.2252 14.5333L10.8293 15.437H12.1849C13.5303 15.437 14.6219 16.5286 14.6219 17.874V23.5603C14.6219 24.9057 13.5303 25.9972 12.1849 25.9972H2.43698C1.09156 25.9972 0 24.9057 0 23.5603V17.874C0 16.5286 1.09156 15.437 2.43698 15.437H3.79255ZM9.74791 20.7171C9.74791 19.3717 8.65635 18.2801 7.31093 18.2801C5.96552 18.2801 4.87395 19.3717 4.87395 20.7171C4.87395 22.0625 5.96552 23.1541 7.31093 23.1541C8.65635 23.1541 9.74791 22.0625 9.74791 20.7171ZM24.3038 14.1322L22.3542 18.6863H25.1821C25.5223 18.6863 25.8218 18.8945 25.9437 19.2143C26.0655 19.5342 25.9741 19.8896 25.7203 20.1129L19.2217 25.7992C18.9373 26.048 18.516 26.0683 18.2113 25.8449C17.9067 25.6215 17.795 25.2154 17.9422 24.8701L19.8867 20.311H17.0588C16.7187 20.311 16.4191 20.1028 16.2973 19.7829C16.1754 19.4631 16.2668 19.1077 16.5207 18.8843L23.0193 13.198C23.3036 12.9492 23.725 12.9289 24.0296 13.1523C24.3342 13.3757 24.4459 13.7819 24.2987 14.1271L24.3038 14.1322ZM7.09262 11.1266C6.76261 11.4566 6.22952 11.4566 5.9249 11.1266L1.01033 6.05463C-0.41124 4.58229 -0.335084 2.15039 1.26418 0.779593C2.63498 -0.41351 4.73687 -0.185044 6.00613 1.1096L6.51384 1.64269L6.99616 1.1096C8.26541 -0.185044 10.3419 -0.41351 11.7635 0.779593C13.3374 2.15039 13.4135 4.58229 11.992 6.05463L7.0977 11.1266H7.09262Z" fill="url(#paint0_linear_975_8848)"/>
<defs>
<linearGradient id="paint0_linear_975_8848" x1="7.29188" y1="-2.60899e-07" x2="22.8293" y2="25.9985" gradientUnits="userSpaceOnUse">
<stop stop-color="#C44968"/>
<stop offset="1" stop-color="#B2294B"/>
</linearGradient>
</defs>
</svg>
