<svg width="24" height="26" viewBox="0 0 24 26" fill="none" xmlns="http://www.w3.org/2000/svg">
<path d="M6.85714 0C7.80536 0 8.57143 0.726172 8.57143 1.625V3.25H15.4286V1.625C15.4286 0.726172 16.1946 0 17.1429 0C18.0911 0 18.8571 0.726172 18.8571 1.625V3.25H21.4286C22.8482 3.25 24 4.3418 24 5.6875V8.125H0V5.6875C0 4.3418 1.15179 3.25 2.57143 3.25H5.14286V1.625C5.14286 0.726172 5.90893 0 6.85714 0ZM0 9.75H24V23.5625C24 24.9082 22.8482 26 21.4286 26H2.57143C1.15179 26 0 24.9082 0 23.5625V9.75ZM17.625 15.4883C18.1286 15.0109 18.1286 14.2391 17.625 13.7668C17.1214 13.2945 16.3071 13.2895 15.8089 13.7668L10.7196 18.591L8.20179 16.2043C7.69821 15.727 6.88393 15.727 6.38571 16.2043C5.8875 16.6816 5.88214 17.4535 6.38571 17.9258L9.81429 21.1758C10.3179 21.6531 11.1321 21.6531 11.6304 21.1758L17.625 15.4883Z" fill="url(#paint0_linear_975_8744)"/>
<defs>
<linearGradient id="paint0_linear_975_8744" x1="6.73171" y1="-2.60899e-07" x2="22.8277" y2="24.8642" gradientUnits="userSpaceOnUse">
<stop stop-color="#C44968"/>
<stop offset="1" stop-color="#B2294B"/>
</linearGradient>
</defs>
</svg>
