<svg width="25" height="24" viewBox="0 0 25 24" fill="none" xmlns="http://www.w3.org/2000/svg">
<g clip-path="url(#clip0_144_169)">
<path d="M7.24988 17.5H4.49988C3.77053 17.5 3.07106 17.2103 2.55533 16.6945C2.03961 16.1788 1.74988 15.4793 1.74988 14.75V3.75C1.74988 3.02065 2.03961 2.32118 2.55533 1.80546C3.07106 1.28973 3.77053 1 4.49988 1H15.4999C16.2292 1 16.9287 1.28973 17.4444 1.80546C17.9601 2.32118 18.2499 3.02065 18.2499 3.75V6.5M9.99988 23H20.9999C21.7292 23 22.4287 22.7103 22.9444 22.1945C23.4601 21.6788 23.7499 20.9793 23.7499 20.25V9.25C23.7499 8.52065 23.4601 7.82118 22.9444 7.30546C22.4287 6.78973 21.7292 6.5 20.9999 6.5H9.99988C9.27053 6.5 8.57106 6.78973 8.05533 7.30546C7.53961 7.82118 7.24988 8.52065 7.24988 9.25V20.25C7.24988 20.9793 7.53961 21.6788 8.05533 22.1945C8.57106 22.7103 9.27053 23 9.99988 23Z" stroke="#878787" stroke-width="1.9" stroke-linecap="round" stroke-linejoin="round"/>
</g>
<defs>
<clipPath id="clip0_144_169">
<rect width="24" height="24" fill="white" transform="translate(0.75)"/>
</clipPath>
</defs>
</svg>
