<svg width="24" height="26" viewBox="0 0 24 26" fill="none" xmlns="http://www.w3.org/2000/svg">
<path d="M22.2857 0C21.4286 0 15.4286 1.625 15.4286 8.9375V14.625C15.4286 16.4176 16.9661 17.875 18.8571 17.875H20.5714V24.375C20.5714 25.2738 21.3375 26 22.2857 26C23.2339 26 24 25.2738 24 24.375V17.875V12.1875V1.625C24 0.726172 23.2339 0 22.2857 0ZM3.42857 0.8125C3.42857 0.396094 3.10179 0.0507812 2.6625 0.00507813C2.22321 -0.040625 1.83214 0.233594 1.73571 0.634766L0.1125 7.55625C0.0375 7.87617 0 8.20117 0 8.52617C0 10.857 1.88036 12.7715 4.28571 12.9797V24.375C4.28571 25.2738 5.05179 26 6 26C6.94821 26 7.71429 25.2738 7.71429 24.375V12.9797C10.1196 12.7715 12 10.857 12 8.52617C12 8.20117 11.9625 7.87617 11.8875 7.55625L10.2643 0.634766C10.1679 0.228516 9.76607 -0.040625 9.33214 0.00507813C8.89821 0.0507812 8.57143 0.396094 8.57143 0.8125V7.62734C8.57143 7.90156 8.33571 8.125 8.04643 8.125C7.77321 8.125 7.54821 7.92695 7.52143 7.66797L6.85179 0.741406C6.81429 0.319922 6.44464 0 6 0C5.55536 0 5.18571 0.319922 5.14821 0.741406L4.48393 7.66797C4.45714 7.92695 4.23214 8.125 3.95893 8.125C3.66964 8.125 3.43393 7.90156 3.43393 7.62734V0.8125H3.42857ZM6.01607 8.53125H6H5.98393L6 8.4957L6.01607 8.53125Z" fill="url(#paint0_linear_975_8854)"/>
<defs>
<linearGradient id="paint0_linear_975_8854" x1="6.73171" y1="-2.60899e-07" x2="22.8277" y2="24.8642" gradientUnits="userSpaceOnUse">
<stop stop-color="#C44968"/>
<stop offset="1" stop-color="#B2294B"/>
</linearGradient>
</defs>
</svg>
