<svg width="14" height="12" viewBox="0 0 14 12" fill="none" xmlns="http://www.w3.org/2000/svg">
<path fill-rule="evenodd" clip-rule="evenodd" d="M6.74706 0.0340176C6.90562 -0.0112894 7.07284 -0.0113309 7.23138 0.0338437C7.56838 0.12987 7.90848 0.218937 8.24972 0.308301C9.85212 0.727935 11.4795 1.15412 12.9274 2.33821L13.5941 2.8835C13.8646 3.10468 13.9999 3.43208 14 3.75953V8.33634C14 8.60716 13.7813 8.82671 13.5116 8.82671C13.2419 8.82671 13.0233 8.60716 13.0233 8.33634V5.10424L12.9172 5.19117C12.4155 5.60224 11.892 5.92145 11.3555 6.18057C11.3811 6.24014 11.3953 6.30583 11.3953 6.37485V9.18235C11.3953 9.92332 10.9426 10.5884 10.2551 10.8576L7.65044 11.8772C7.23215 12.0409 6.76785 12.0409 6.34956 11.8772L3.7449 10.8576C3.05735 10.5884 2.60465 9.92332 2.60465 9.18235V6.37485C2.60465 6.30408 2.61958 6.23682 2.64644 6.17606C2.10575 5.91542 1.57824 5.59434 1.07262 5.18084L0.405871 4.63555C-0.135023 4.19319 -0.135307 3.32599 0.405118 2.88318L1.08283 2.32788C2.52024 1.15011 4.13614 0.726476 5.72667 0.309491C6.06865 0.219836 6.40946 0.130487 6.74706 0.0340176ZM13.0233 3.75992C13.0232 3.70101 12.9995 3.66212 12.9773 3.64393L12.3105 3.09864C10.907 2.12495 9.65632 1.69551 8.06784 1.27638C7.71856 1.18422 7.35938 1.08945 6.98956 0.984399C6.61809 1.09021 6.25761 1.18543 5.90716 1.27801C4.3314 1.69426 2.95838 2.05696 1.70037 3.08773L1.02265 3.64304C1.00039 3.66128 0.97672 3.70023 0.976744 3.75913C0.976768 3.81804 1.00047 3.85693 1.02271 3.87512L1.68946 4.42041C2.95813 5.45796 4.34368 5.82354 5.93216 6.24267C6.28146 6.33483 6.6406 6.42959 7.01044 6.53465C7.38188 6.42885 7.74234 6.33363 8.09276 6.24106C9.66851 5.82481 11.0416 5.46209 12.2996 4.43132L12.9773 3.87601C12.9996 3.85779 13.0232 3.81872 13.0233 3.75992ZM8.27333 7.20956C8.98948 7.02181 9.71078 6.83271 10.4186 6.57403V9.18235C10.4186 9.51916 10.2128 9.82147 9.90031 9.94381L7.29566 10.9634C7.10552 11.0379 6.89448 11.0379 6.70434 10.9634L4.09969 9.94381C3.78717 9.82147 3.5814 9.51916 3.5814 9.18235V6.56847C4.29687 6.83013 5.02613 7.02111 5.75027 7.21075C6.09151 7.30011 6.43162 7.38918 6.76862 7.48521C6.92716 7.53038 7.09439 7.53034 7.25294 7.48503C7.59053 7.38857 7.93137 7.29921 8.27333 7.20956Z" fill="#1E1E1E"/>
</svg>
