<svg width="25" height="24" viewBox="0 0 25 24" fill="none" xmlns="http://www.w3.org/2000/svg">
<g clip-path="url(#clip0_144_159)">
<path fill-rule="evenodd" clip-rule="evenodd" d="M14.353 15.6857C15.6685 15.6857 16.7394 16.6991 16.7394 17.9449V21.1489C16.7394 21.4166 16.9645 21.6311 17.2529 21.6374H19.3356C20.9768 21.6374 22.311 20.3812 22.311 18.8376V9.75059C22.3033 9.21937 22.0378 8.7194 21.5821 8.38712L14.3781 2.91036C13.4111 2.18019 12.0583 2.18019 11.088 2.91244L3.93313 8.38504C3.46 8.72773 3.19448 9.2277 3.18901 9.76829V18.8376C3.18901 20.3812 4.52318 21.6374 6.16439 21.6374H8.26671C8.56283 21.6374 8.80322 21.4135 8.80322 21.1385C8.80322 21.0781 8.81087 21.0176 8.82398 20.9604V17.9449C8.82398 16.7064 9.88825 15.694 11.194 15.6857H14.353ZM19.3356 23.1998H17.2333C16.0291 23.1727 15.1003 22.2717 15.1003 21.1489V17.9449C15.1003 17.5605 14.7649 17.2481 14.353 17.2481H11.1995C10.7963 17.2501 10.463 17.5637 10.463 17.9449V21.1385C10.463 21.2166 10.4521 21.2916 10.4291 21.3624C10.3111 22.3936 9.38671 23.1998 8.26671 23.1998H6.16439C3.61953 23.1998 1.54999 21.2426 1.54999 18.8376V9.761C1.56091 8.72565 2.06136 7.77778 2.92568 7.15386L10.0664 1.69064C11.6387 0.503208 13.8296 0.503207 15.3987 1.68856L22.5907 7.15699C23.4353 7.77049 23.9358 8.71627 23.95 9.73913V18.8376C23.95 21.2426 21.8804 23.1998 19.3356 23.1998Z" fill="#878787" stroke="#878787" stroke-width="0.3"/>
</g>
<defs>
<clipPath id="clip0_144_159">
<rect width="24" height="24" fill="white" transform="translate(0.75)"/>
</clipPath>
</defs>
</svg>
