<svg width="12" height="11" viewBox="0 0 12 11" fill="none" xmlns="http://www.w3.org/2000/svg">
<path fill-rule="evenodd" clip-rule="evenodd" d="M2.97013 2.07268V1.32332C2.97013 0.768406 3.37438 0.29699 3.92081 0.214673L4.69896 0.0974517C5.5615 -0.0324838 6.43851 -0.032484 7.30105 0.0974516L8.0792 0.214673C8.62563 0.29699 9.02988 0.768406 9.02988 1.32332V2.07269L10.1232 2.16132C10.9603 2.22918 11.6432 2.86218 11.7775 3.69479C12.0742 5.53494 12.0742 7.41105 11.7775 9.2512C11.6432 10.0838 10.9603 10.7168 10.1232 10.7847L8.92917 10.8815C6.97956 11.0395 5.02044 11.0395 3.07083 10.8815L1.8768 10.7847C1.03967 10.7168 0.356806 10.0838 0.222546 9.2512C-0.0741821 7.41105 -0.0741821 5.53494 0.222546 3.69479C0.356806 2.86218 1.03967 2.22918 1.8768 2.16132L2.97013 2.07268ZM4.84089 1.04772C5.60933 0.931962 6.39068 0.931962 7.15912 1.04772L7.93726 1.16494C8.01533 1.1767 8.07308 1.24405 8.07308 1.32332V2.00531C6.69215 1.92621 5.30786 1.92621 3.92693 2.00531V1.32332C3.92693 1.24405 3.98468 1.1767 4.06275 1.16494L4.84089 1.04772ZM3.14782 3.02231C5.04618 2.86842 6.95382 2.86842 8.85219 3.02231L10.0462 3.1191C10.4443 3.15138 10.7691 3.45242 10.833 3.8484C10.8727 4.09498 10.9068 4.34225 10.9353 4.59001C7.82406 6.12861 4.17595 6.12861 1.06468 4.59001C1.09316 4.34225 1.12728 4.09498 1.16704 3.8484C1.2309 3.45242 1.55565 3.15138 1.95378 3.1191L3.14782 3.02231ZM0.979274 5.61245C4.16823 7.069 7.83177 7.069 11.0207 5.61244C11.0815 6.77589 11.0189 7.94422 10.833 9.09759C10.7691 9.49356 10.4443 9.79461 10.0462 9.82689L8.85218 9.92368C6.95381 10.0776 5.04619 10.0776 3.14782 9.92368L1.95378 9.82689C1.55565 9.79461 1.2309 9.49356 1.16704 9.09759C0.981059 7.94422 0.918469 6.77589 0.979274 5.61245Z" fill="#1E1E1E"/>
</svg>
