<svg width="20" height="16" viewBox="0 0 20 16" fill="none" xmlns="http://www.w3.org/2000/svg">
<path d="M1.93548 3.69231C3.00403 3.69231 3.87097 2.86538 3.87097 1.84615C3.87097 0.826923 3.00403 0 1.93548 0C0.866935 0 0 0.826923 0 1.84615C0 2.86538 0.866935 3.69231 1.93548 3.69231ZM7.09677 0.615385C6.38306 0.615385 5.80645 1.16538 5.80645 1.84615C5.80645 2.52692 6.38306 3.07692 7.09677 3.07692H18.7097C19.4234 3.07692 20 2.52692 20 1.84615C20 1.16538 19.4234 0.615385 18.7097 0.615385H7.09677ZM7.09677 6.76923C6.38306 6.76923 5.80645 7.31923 5.80645 8C5.80645 8.68077 6.38306 9.23077 7.09677 9.23077H18.7097C19.4234 9.23077 20 8.68077 20 8C20 7.31923 19.4234 6.76923 18.7097 6.76923H7.09677ZM7.09677 12.9231C6.38306 12.9231 5.80645 13.4731 5.80645 14.1538C5.80645 14.8346 6.38306 15.3846 7.09677 15.3846H18.7097C19.4234 15.3846 20 14.8346 20 14.1538C20 13.4731 19.4234 12.9231 18.7097 12.9231H7.09677ZM1.93548 16C3.00403 16 3.87097 15.1731 3.87097 14.1538C3.87097 13.1346 3.00403 12.3077 1.93548 12.3077C0.866935 12.3077 0 13.1346 0 14.1538C0 15.1731 0.866935 16 1.93548 16ZM3.87097 8C3.87097 6.98077 3.00403 6.15385 1.93548 6.15385C0.866935 6.15385 0 6.98077 0 8C0 9.01923 0.866935 9.84615 1.93548 9.84615C3.00403 9.84615 3.87097 9.01923 3.87097 8Z" fill="#1E1E1E"/>
</svg>
