<svg width="26" height="26" viewBox="0 0 26 26" fill="none" xmlns="http://www.w3.org/2000/svg">
<path d="M7.95515 19.5434L6.38609 17.9744C5.95448 17.5428 5.80214 16.9182 5.9951 16.3393C6.14743 15.8874 6.35055 15.2984 6.59429 14.623H1.22191C0.785213 14.623 0.378985 14.3894 0.160637 14.0086C-0.0577114 13.6277 -0.0526336 13.1606 0.170792 12.7848L2.83667 8.2909C3.49679 7.17885 4.69009 6.49842 5.97986 6.49842H10.1589C10.2808 6.29531 10.4027 6.10743 10.5246 5.92462C14.6833 -0.209433 20.8783 -0.412547 24.575 0.267886C25.164 0.374521 25.621 0.836607 25.7327 1.42564C26.4132 5.1274 26.205 11.3173 20.076 15.4761C19.8983 15.5979 19.7053 15.7198 19.5022 15.8417V20.0208C19.5022 21.3105 18.8218 22.5089 17.7097 23.164L13.2158 25.8298C12.8401 26.0533 12.3729 26.0583 11.9921 25.84C11.6112 25.6216 11.3776 25.2205 11.3776 24.7787V19.3353C10.6617 19.5841 10.0371 19.7872 9.56483 19.9395C8.99611 20.1223 8.37662 19.9649 7.95008 19.5434H7.95515ZM19.5022 8.52956C20.6244 8.52956 21.5334 7.62063 21.5334 6.49842C21.5334 5.37621 20.6244 4.46728 19.5022 4.46728C18.38 4.46728 17.4711 5.37621 17.4711 6.49842C17.4711 7.62063 18.38 8.52956 19.5022 8.52956Z" fill="url(#paint0_linear_975_8738)"/>
<defs>
<linearGradient id="paint0_linear_975_8738" x1="7.29268" y1="-2.60905e-07" x2="22.8298" y2="26.0003" gradientUnits="userSpaceOnUse">
<stop stop-color="#C44968"/>
<stop offset="1" stop-color="#B2294B"/>
</linearGradient>
</defs>
</svg>
