<svg width="25" height="24" viewBox="0 0 25 24" fill="none" xmlns="http://www.w3.org/2000/svg">
<g clip-path="url(#clip0_144_174)">
<path fill-rule="evenodd" clip-rule="evenodd" d="M16.8117 0C17.2788 0 17.6579 0.375068 17.6579 0.837205L17.6584 1.78359C19.3057 1.89534 20.6738 2.45362 21.6421 3.41368C22.6992 4.46409 23.2554 5.97441 23.2498 7.78612V17.9699C23.2498 21.6893 20.8625 24 17.021 24H7.47867C3.63715 24 1.24988 21.6569 1.24988 17.8851V7.78389C1.24988 4.27566 3.37886 2.02374 6.85104 1.78398L6.85173 0.837205C6.85173 0.375068 7.23081 0 7.69788 0C8.16496 0 8.54403 0.375068 8.54403 0.837205L8.5437 1.7626H15.965L15.9656 0.837205C15.9656 0.375068 16.3446 0 16.8117 0ZM21.5575 9.9393H2.94218V17.8851C2.94218 20.7494 4.55325 22.3256 7.47867 22.3256H17.021C19.9464 22.3256 21.5575 20.7784 21.5575 17.9699L21.5575 9.9393ZM17.2717 16.9632C17.7388 16.9632 18.1178 17.3383 18.1178 17.8004C18.1178 18.2626 17.7388 18.6376 17.2717 18.6376C16.8046 18.6376 16.421 18.2626 16.421 17.8004C16.421 17.3383 16.7945 16.9632 17.2615 16.9632H17.2717ZM12.2653 16.9632C12.7324 16.9632 13.1114 17.3383 13.1114 17.8004C13.1114 18.2626 12.7324 18.6376 12.2653 18.6376C11.7982 18.6376 11.4146 18.2626 11.4146 17.8004C11.4146 17.3383 11.7881 16.9632 12.2551 16.9632H12.2653ZM7.24841 16.9632C7.71548 16.9632 8.09456 17.3383 8.09456 17.8004C8.09456 18.2626 7.71548 18.6376 7.24841 18.6376C6.78133 18.6376 6.39662 18.2626 6.39662 17.8004C6.39662 17.3383 6.77118 16.9632 7.23825 16.9632H7.24841ZM17.2717 12.6246C17.7388 12.6246 18.1178 12.9997 18.1178 13.4618C18.1178 13.924 17.7388 14.299 17.2717 14.299C16.8046 14.299 16.421 13.924 16.421 13.4618C16.421 12.9997 16.7945 12.6246 17.2615 12.6246H17.2717ZM12.2653 12.6246C12.7324 12.6246 13.1114 12.9997 13.1114 13.4618C13.1114 13.924 12.7324 14.299 12.2653 14.299C11.7982 14.299 11.4146 13.924 11.4146 13.4618C11.4146 12.9997 11.7881 12.6246 12.2551 12.6246H12.2653ZM7.24841 12.6246C7.71548 12.6246 8.09456 12.9997 8.09456 13.4618C8.09456 13.924 7.71548 14.299 7.24841 14.299C6.78133 14.299 6.39662 13.924 6.39662 13.4618C6.39662 12.9997 6.77118 12.6246 7.23825 12.6246H7.24841ZM15.965 3.43701H8.5437L8.54403 4.51086C8.54403 4.973 8.16496 5.34807 7.69788 5.34807C7.23081 5.34807 6.85173 4.973 6.85173 4.51086L6.85113 3.46235C4.3237 3.67242 2.94218 5.18828 2.94218 7.78389V8.26489H21.5575L21.5575 7.78389C21.562 6.40529 21.1874 5.33367 20.444 4.59693C19.7913 3.94927 18.8372 3.56248 17.6588 3.46288L17.6579 4.51086C17.6579 4.973 17.2788 5.34807 16.8117 5.34807C16.3446 5.34807 15.9656 4.973 15.9656 4.51086L15.965 3.43701Z" fill="#878787" stroke="#878787" stroke-width="0.2"/>
</g>
<defs>
<clipPath id="clip0_144_174">
<rect width="24" height="24" fill="white" transform="translate(0.25)"/>
</clipPath>
</defs>
</svg>
