<svg width="25" height="24" viewBox="0 0 25 24" fill="none" xmlns="http://www.w3.org/2000/svg">
<path fill-rule="evenodd" clip-rule="evenodd" d="M9.97432 2.51724C8.06293 2.51724 6.22983 3.27654 4.87828 4.62809C3.52672 5.97965 2.76742 7.81275 2.76742 9.72414C2.76742 10.6706 2.95384 11.6077 3.31602 12.4821C3.6782 13.3565 4.20905 14.151 4.87828 14.8202C5.5475 15.4894 6.34198 16.0203 7.21636 16.3824C8.09074 16.7446 9.0279 16.931 9.97432 16.931C10.9207 16.931 11.8579 16.7446 12.7323 16.3824C13.6067 16.0203 14.4011 15.4894 15.0704 14.8202C15.7396 14.151 16.2704 13.3565 16.6326 12.4821C16.9948 11.6077 17.1812 10.6706 17.1812 9.72414C17.1812 7.81275 16.4219 5.97965 15.0704 4.62809C13.7188 3.27654 11.8857 2.51724 9.97432 2.51724ZM3.80542 3.55524C5.44152 1.91915 7.66054 1 9.97432 1C12.2881 1 14.5071 1.91915 16.1432 3.55524C17.7793 5.19133 18.6985 7.41035 18.6985 9.72414C18.6985 10.8698 18.4728 12.0043 18.0344 13.0627C17.693 13.8868 17.2279 14.6523 16.6563 15.3332L23.028 21.705C23.3242 22.0012 23.3242 22.4815 23.028 22.7778C22.7317 23.0741 22.2514 23.0741 21.9551 22.7778L15.5834 16.4061C14.9025 16.9777 14.137 17.4428 13.3129 17.7842C12.2544 18.2226 11.12 18.4483 9.97432 18.4483C8.82865 18.4483 7.6942 18.2226 6.63574 17.7842C5.57728 17.3458 4.61553 16.7031 3.80542 15.893C2.99531 15.0829 2.3527 14.1212 1.91427 13.0627C1.47584 12.0043 1.25018 10.8698 1.25018 9.72414C1.25018 7.41035 2.16933 5.19133 3.80542 3.55524Z" fill="#B2294B" stroke="#B2294B" stroke-width="0.5" stroke-linecap="round" stroke-linejoin="round"/>
</svg>
